<?xml version="1.0" encoding="UTF-8"?>
<svg id="Capa_2" data-name="Capa 2" xmlns="http://www.w3.org/2000/svg" viewBox="0 0 78.06 65.66">
  <defs>
    <style>
      .cls-1 {
        fill: #1f2937;
      }

      .cls-1, .cls-2, .cls-3 {
        stroke-width: 0px;
      }

      .cls-2 {
        fill: #1c64f2;
      }

      .cls-3 {
        fill: #fff;
      }
    </style>
  </defs>
  <g id="Layer_1" data-name="Layer 1">
    <rect class="cls-1" x="0" y="20.66" width="50" height="45" rx="5.67" ry="5.67"/>
    <path class="cls-3" d="M22.16,43.1l-10.98,9.76c-.51.45-1.28.4-1.73-.1-.45-.51-.4-1.28.1-1.73h0l9.96-8.85-9.96-8.85c-.51-.45-.55-1.22-.1-1.73.45-.51,1.22-.55,1.73-.1l10.98,9.76c.51.45.55,1.22.11,1.72-.03.04-.07.07-.11.11h0ZM37.21,50.72h-14.65c-.67,0-1.22.55-1.22,1.22s.55,1.22,1.22,1.22h14.65c.67,0,1.22-.55,1.22-1.22s-.55-1.22-1.22-1.22Z"/>
    <rect class="cls-2" x="28.06" width="50" height="45" rx="5.67" ry="5.67"/>
    <path class="cls-3" d="M46.52,6.56c-3.43,0-5.82,3.03-5.82,7.36s2.4,7.36,5.82,7.36,5.82-3.03,5.82-7.36-2.4-7.36-5.82-7.36ZM46.52,18.82c-2.66,0-3.37-3.08-3.37-4.91s.71-4.91,3.37-4.91,3.37,3.08,3.37,4.91-.71,4.91-3.37,4.91ZM57.55,23.73c-3.43,0-5.82,3.03-5.82,7.36s2.4,7.36,5.82,7.36,5.82-3.03,5.82-7.36-2.4-7.36-5.82-7.36ZM57.55,35.99c-2.66,0-3.37-3.08-3.37-4.91s.71-4.91,3.37-4.91,3.37,3.08,3.37,4.91-.71,4.91-3.37,4.91ZM54.33,10.42c-.33-.59-.12-1.34.48-1.67,0,0,0,0,0,0l3.68-2.04c.59-.33,1.34-.12,1.67.48.1.18.15.39.15.6v12.26c0,.68-.55,1.23-1.23,1.23s-1.23-.55-1.23-1.23v-10.18l-1.86,1.03c-.59.33-1.34.12-1.67-.48,0,0,0,0,0,0ZM48.05,24.95v12.26c0,.68-.55,1.23-1.23,1.23s-1.23-.55-1.23-1.23v-10.18l-1.86,1.03c-.59.33-1.34.11-1.67-.48-.33-.59-.11-1.34.48-1.67l3.68-2.04c.59-.33,1.34-.11,1.67.48.1.18.15.39.15.6Z"/>
  </g>
</svg>